<svg xmlns="http://www.w3.org/2000/svg" viewBox="0 0 80 80" width="80" height="80">
  <defs>
    <radialGradient id="petal">
      <stop offset="0" stop-color="#fff0f7"/>
      <stop offset="1" stop-color="#ff9ec1"/>
    </radialGradient>
  </defs>
  <g fill="url(#petal)" stroke="#ff6fa5" stroke-width="1.2">
    <path d="M40 10 Q50 25 40 40 Q30 25 40 10 Z" transform="rotate(0 40 40)"/>
    <path d="M40 10 Q50 25 40 40 Q30 25 40 10 Z" transform="rotate(72 40 40)"/>
    <path d="M40 10 Q50 25 40 40 Q30 25 40 10 Z" transform="rotate(144 40 40)"/>
    <path d="M40 10 Q50 25 40 40 Q30 25 40 10 Z" transform="rotate(216 40 40)"/>
    <path d="M40 10 Q50 25 40 40 Q30 25 40 10 Z" transform="rotate(288 40 40)"/>
  </g>
  <circle cx="40" cy="40" r="4" fill="#ffd25a"/>
</svg>
